# xmcd
#
# Track frame offsets:
#	150
#	20587
#	53712
#	95527
#	127457
#	165445
#	203162
#	245705
#	270750
#	303020
#
# Disc length: 4435 seconds
#
# Revision: 1
# Processed by: cddbd v1.5.2PL0 Copyright (c) Steve Scherf et al.
# Submitted via: audiograbber 1.83.01
#
DISCID=8111510a
DTITLE=Grateful Dead - 77-11-02 Field House, Seneca College, Toronto, Canada
DYEAR=1900
DGENRE=
TTITLE0=Promised Land
TTITLE1=They Love Each Other
TTITLE2=Me and My Uncle - Big River
TTITLE3=Candyman
TTITLE4=Looks Like Rain
TTITLE5=Ramble On Rose
TTITLE6=Lazy Lightning - Supplication
TTITLE7=Might As Well
TTITLE8=Samson and Delilah
TTITLE9=Ship Of Fools
EXTD=
EXTT0=
EXTT1=
EXTT2=
EXTT3=
EXTT4=
EXTT5=
EXTT6=
EXTT7=
EXTT8=
EXTT9=
PLAYORDER=
